<svg xmlns="http://www.w3.org/2000/svg" width="760" height="492" viewBox="0 0 760 492" font-family="Arial, Liberation Sans, sans-serif"><rect width="100%" height="100%" fill="#FFFFFF"/><text x="16" y="22" font-size="15" font-weight="700" fill="#1A1A1A">Bytes propios descargados al abrir la portada</text><rect x="230" y="30" width="12" height="12" fill="#0C2C84"/><text x="248" y="40" font-size="12" fill="#1A1A1A">upstream</text><rect x="340" y="30" width="12" height="12" fill="#FFB300"/><text x="358" y="40" font-size="12" fill="#1A1A1A">main</text><text x="220" y="78" text-anchor="end" font-size="13" fill="#1A1A1A">script</text><rect x="230" y="62" width="26.69199380892078" height="16" fill="#0C2C84"/><text x="262.69199380892076" y="75" font-size="12" fill="#595959">1897 KB</text><rect x="230" y="80" width="5.023216547066273" height="16" fill="#FFB300"/><text x="241.02321654706628" y="93" font-size="12" fill="#595959">357 KB</text><text x="220" y="124" text-anchor="end" font-size="13" fill="#1A1A1A">stylesheet</text><rect x="230" y="108" width="4.983818770226537" height="16" fill="#0C2C84"/><text x="240.98381877022655" y="121" font-size="12" fill="#595959">354,2 KB</text><rect x="230" y="126" width="3.876459828338258" height="16" fill="#FFB300"/><text x="239.87645982833826" y="139" font-size="12" fill="#595959">275,5 KB</text><text x="220" y="170" text-anchor="end" font-size="13" fill="#1A1A1A">font</text><rect x="230" y="154" width="1" height="16" fill="#0C2C84"/><text x="236.60925847755735" y="167" font-size="12" fill="#595959">43,3 KB</text><rect x="230" y="172" width="3.2869002392007878" height="16" fill="#FFB300"/><text x="239.28690023920078" y="185" font-size="12" fill="#595959">233,6 KB</text><text x="220" y="216" text-anchor="end" font-size="13" fill="#1A1A1A">image</text><rect x="230" y="200" width="7.80498100464331" height="16" fill="#0C2C84"/><text x="243.8049810046433" y="213" font-size="12" fill="#595959">554,7 KB</text><rect x="230" y="218" width="4.1395806950893475" height="16" fill="#FFB300"/><text x="240.13958069508934" y="231" font-size="12" fill="#595959">294,2 KB</text><text x="220" y="262" text-anchor="end" font-size="13" fill="#1A1A1A">document</text><rect x="230" y="246" width="1" height="16" fill="#0C2C84"/><text x="236.5262417335022" y="259" font-size="12" fill="#595959">37,4 KB</text><rect x="230" y="264" width="1" height="16" fill="#FFB300"/><text x="236.53749824117068" y="277" font-size="12" fill="#595959">38,2 KB</text><text x="220" y="308" text-anchor="end" font-size="13" fill="#1A1A1A">fetch</text><rect x="230" y="292" width="1" height="16" fill="#0C2C84"/><text x="236.24482904178979" y="305" font-size="12" fill="#595959">17,4 KB</text><rect x="230" y="310" width="1" height="16" fill="#FFB300"/><text x="236.20261713803293" y="323" font-size="12" fill="#595959">14,4 KB</text><text x="220" y="354" text-anchor="end" font-size="13" fill="#1A1A1A">xhr</text><rect x="230" y="338" width="1" height="16" fill="#0C2C84"/><text x="236.0042211903757" y="351" font-size="12" fill="#595959">0,3 KB</text><rect x="230" y="356" width="1" height="16" fill="#FFB300"/><text x="236.0042211903757" y="369" font-size="12" fill="#595959">0,3 KB</text><text x="220" y="400" text-anchor="end" font-size="13" fill="#1A1A1A">Total propio</text><rect x="230" y="384" width="40.865344027015624" height="16" fill="#0C2C84"/><text x="276.8653440270156" y="397" font-size="12" fill="#595959">2904,3 KB</text><rect x="230" y="402" width="17.070493879273954" height="16" fill="#FFB300"/><text x="253.07049387927395" y="415" font-size="12" fill="#595959">1213,2 KB</text><text x="220" y="446" text-anchor="end" font-size="13" fill="#1A1A1A">Terceros (vídeos…)</text><rect x="230" y="430" width="420" height="16" fill="#0C2C84"/><text x="656" y="443" font-size="12" fill="#595959">29.849,4 KB</text><rect x="230" y="448" width="1" height="16" fill="#FFB300"/><text x="236" y="461" font-size="12" fill="#595959">0 KB</text></svg>
