<svg xmlns="http://www.w3.org/2000/svg" width="760" height="446" viewBox="0 0 760 446" font-family="Arial, Liberation Sans, sans-serif"><rect width="100%" height="100%" fill="#FFFFFF"/><text x="16" y="22" font-size="15" font-weight="700" fill="#1A1A1A">Tamaño de lo que se publica, por tipo de fichero</text><rect x="230" y="30" width="12" height="12" fill="#0C2C84"/><text x="248" y="40" font-size="12" fill="#1A1A1A">Versión original</text><rect x="380" y="30" width="12" height="12" fill="#FFB300"/><text x="398" y="40" font-size="12" fill="#1A1A1A">Versión actual</text><text x="220" y="78" text-anchor="end" font-size="13" fill="#1A1A1A">Código (JavaScript)</text><rect x="230" y="62" width="33.15339208513468" height="16" fill="#0C2C84"/><text x="269.15339208513467" y="75" font-size="12" fill="#595959">1898,9 KB</text><rect x="230" y="80" width="16.811523112736946" height="16" fill="#FFB300"/><text x="252.81152311273695" y="93" font-size="12" fill="#595959">962,9 KB</text><text x="220" y="124" text-anchor="end" font-size="13" fill="#1A1A1A">Estilos (CSS)</text><rect x="230" y="108" width="6.224226804123711" height="16" fill="#0C2C84"/><text x="242.2242268041237" y="121" font-size="12" fill="#595959">356,5 KB</text><rect x="230" y="126" width="4.747173262387761" height="16" fill="#FFB300"/><text x="240.74717326238778" y="139" font-size="12" fill="#595959">271,9 KB</text><text x="220" y="170" text-anchor="end" font-size="13" fill="#1A1A1A">Imágenes</text><rect x="230" y="154" width="95.28217492517459" height="16" fill="#0C2C84"/><text x="331.28217492517456" y="167" font-size="12" fill="#595959">5457,4 KB</text><rect x="230" y="172" width="16.322663784502826" height="16" fill="#FFB300"/><text x="252.32266378450282" y="185" font-size="12" fill="#595959">934,9 KB</text><text x="220" y="216" text-anchor="end" font-size="13" fill="#1A1A1A">Fuentes</text><rect x="230" y="200" width="90.01471566345194" height="16" fill="#0C2C84"/><text x="326.01471566345197" y="213" font-size="12" fill="#595959">5155,7 KB</text><rect x="230" y="218" width="1.9222647156634518" height="16" fill="#FFB300"/><text x="237.92226471566346" y="231" font-size="12" fill="#595959">110,1 KB</text><text x="220" y="262" text-anchor="end" font-size="13" fill="#1A1A1A">Servidor (PHP)</text><rect x="230" y="246" width="185.53084469571002" height="16" fill="#0C2C84"/><text x="421.53084469571" y="259" font-size="12" fill="#595959">10.626,5 KB</text><rect x="230" y="264" width="1" height="16" fill="#FFB300"/><text x="236" y="277" font-size="12" fill="#595959">0 KB</text><text x="220" y="308" text-anchor="end" font-size="13" fill="#1A1A1A">Ayudas de depuración</text><rect x="230" y="292" width="7.387013634852012" height="16" fill="#0C2C84"/><text x="243.38701363485202" y="305" font-size="12" fill="#595959">423,1 KB</text><rect x="230" y="310" width="13.41395078150981" height="16" fill="#FFB300"/><text x="249.4139507815098" y="323" font-size="12" fill="#595959">768,3 KB</text><text x="220" y="354" text-anchor="end" font-size="13" fill="#1A1A1A">Otros</text><rect x="230" y="338" width="3.0588626538077817" height="16" fill="#0C2C84"/><text x="239.05886265380778" y="351" font-size="12" fill="#595959">175,2 KB</text><rect x="230" y="356" width="1.442135018290655" height="16" fill="#FFB300"/><text x="237.44213501829066" y="369" font-size="12" fill="#595959">82,6 KB</text><text x="220" y="400" text-anchor="end" font-size="13" fill="#1A1A1A">Total</text><rect x="230" y="384" width="420" height="16" fill="#0C2C84"/><text x="656" y="397" font-size="12" fill="#595959">24.056 KB</text><rect x="230" y="402" width="54.66320252743599" height="16" fill="#FFB300"/><text x="290.663202527436" y="415" font-size="12" fill="#595959">3130,9 KB</text></svg>
