<svg xmlns="http://www.w3.org/2000/svg" width="760" height="216" viewBox="0 0 760 216" font-family="Arial, Liberation Sans, sans-serif"><rect width="100%" height="100%" fill="#FFFFFF"/><text x="16" y="22" font-size="15" font-weight="700" fill="#1A1A1A">Pruebas automáticas</text><rect x="230" y="30" width="12" height="12" fill="#0C2C84"/><text x="248" y="40" font-size="12" fill="#1A1A1A">Versión original</text><rect x="380" y="30" width="12" height="12" fill="#FFB300"/><text x="398" y="40" font-size="12" fill="#1A1A1A">Versión actual</text><text x="220" y="78" text-anchor="end" font-size="13" fill="#1A1A1A">Pruebas</text><rect x="230" y="62" width="14.4" height="16" fill="#0C2C84"/><text x="250.4" y="75" font-size="12" fill="#595959">300</text><rect x="230" y="80" width="22.512" height="16" fill="#FFB300"/><text x="258.512" y="93" font-size="12" fill="#595959">469</text><text x="220" y="124" text-anchor="end" font-size="13" fill="#1A1A1A">Pruebas vacías</text><rect x="230" y="108" width="1" height="16" fill="#0C2C84"/><text x="236.624" y="121" font-size="12" fill="#595959">13</text><rect x="230" y="126" width="1" height="16" fill="#FFB300"/><text x="236" y="139" font-size="12" fill="#595959">0</text><text x="220" y="170" text-anchor="end" font-size="13" fill="#1A1A1A">Líneas de pruebas</text><rect x="230" y="154" width="304.224" height="16" fill="#0C2C84"/><text x="540.2239999999999" y="167" font-size="12" fill="#595959">6338</text><rect x="230" y="172" width="420" height="16" fill="#FFB300"/><text x="656" y="185" font-size="12" fill="#595959">8750</text></svg>
